<svg width="24" height="24" viewBox="0 0 25 24" fill="none" xmlns="http://www.w3.org/2000/svg">
<path d="M12.0531 12C14.8145 12 17.0531 9.76142 17.0531 7C17.0531 4.23858 14.8145 2 12.0531 2C9.29168 2 7.0531 4.23858 7.0531 7C7.0531 9.76142 9.29168 12 12.0531 12Z" stroke="#292D32" stroke-width="1.5" stroke-linecap="round" stroke-linejoin="round"/>
<path d="M3.4631 22C3.4631 18.13 7.3131 15 12.0531 15C13.0131 15 13.9431 15.13 14.8131 15.37" stroke="#292D32" stroke-width="1.5" stroke-linecap="round" stroke-linejoin="round"/>
<path d="M22.0531 18C22.0531 18.75 21.8431 19.46 21.4731 20.06C21.2631 20.42 20.9931 20.74 20.6831 21C19.9831 21.63 19.0631 22 18.0531 22C16.5931 22 15.3231 21.22 14.6331 20.06C14.2631 19.46 14.0531 18.75 14.0531 18C14.0531 16.74 14.6331 15.61 15.5531 14.88C16.2431 14.33 17.1131 14 18.0531 14C20.2631 14 22.0531 15.79 22.0531 18Z" stroke="#292D32" stroke-width="1.5" stroke-miterlimit="10" stroke-linecap="round" stroke-linejoin="round"/>
<path d="M16.4931 17.9995L17.4831 18.9895L19.6131 17.0195" stroke="#292D32" stroke-width="1.5" stroke-linecap="round" stroke-linejoin="round"/>
</svg>
