<svg width="24" height="24" viewBox="0 0 25 24" fill="none" xmlns="http://www.w3.org/2000/svg">
<path d="M12.0531 6.44043V9.77043" stroke="#292D32" stroke-width="1.5" stroke-miterlimit="10" stroke-linecap="round"/>
<path d="M12.0731 2C8.39309 2 5.41309 4.98 5.41309 8.66V10.76C5.41309 11.44 5.13309 12.46 4.78309 13.04L3.51309 15.16C2.73309 16.47 3.27309 17.93 4.71309 18.41C9.49309 20 14.6631 20 19.4431 18.41C20.7931 17.96 21.3731 16.38 20.6431 15.16L19.3731 13.04C19.0231 12.46 18.7431 11.43 18.7431 10.76V8.66C18.7331 5 15.7331 2 12.0731 2Z" stroke="#292D32" stroke-width="1.5" stroke-miterlimit="10" stroke-linecap="round"/>
<path d="M15.3831 18.8203C15.3831 20.6503 13.8831 22.1503 12.0531 22.1503C11.1431 22.1503 10.3031 21.7703 9.70311 21.1703C9.10311 20.5703 8.72311 19.7303 8.72311 18.8203" stroke="#292D32" stroke-width="1.5" stroke-miterlimit="10"/>
</svg>
