<svg width="24" height="24" viewBox="0 0 25 24" fill="none" xmlns="http://www.w3.org/2000/svg">
<path d="M12.0499 12C14.8114 12 17.0499 9.76142 17.0499 7C17.0499 4.23858 14.8114 2 12.0499 2C9.2885 2 7.04993 4.23858 7.04993 7C7.04993 9.76142 9.2885 12 12.0499 12Z" stroke="#292D32" stroke-width="1.5" stroke-linecap="round" stroke-linejoin="round"/>
<path d="M19.2599 15.74L15.7199 19.2801C15.5799 19.4201 15.4499 19.68 15.4199 19.87L15.2299 21.22C15.1599 21.71 15.4999 22.05 15.9899 21.98L17.3399 21.79C17.5299 21.76 17.7999 21.63 17.9299 21.49L21.4699 17.95C22.0799 17.34 22.3699 16.63 21.4699 15.73C20.5799 14.84 19.8699 15.13 19.2599 15.74Z" stroke="#292D32" stroke-width="1.5" stroke-miterlimit="10" stroke-linecap="round" stroke-linejoin="round"/>
<path d="M18.7499 16.25C19.0499 17.33 19.8899 18.17 20.9699 18.47" stroke="#292D32" stroke-width="1.5" stroke-miterlimit="10" stroke-linecap="round" stroke-linejoin="round"/>
<path d="M3.4599 22C3.4599 18.13 7.30993 15 12.0499 15C13.0899 15 14.0899 15.15 15.0199 15.43" stroke="#292D32" stroke-width="1.5" stroke-linecap="round" stroke-linejoin="round"/>
</svg>
