<svg width="24" height="24" viewBox="0 0 25 24" fill="none" xmlns="http://www.w3.org/2000/svg">
<path d="M22.0531 6.25V11.35C22.0531 12.62 21.6331 13.69 20.8831 14.43C20.1431 15.18 19.0731 15.6 17.8031 15.6V17.41C17.8031 18.09 17.0431 18.5 16.4831 18.12L15.5131 17.48C15.6031 17.17 15.6431 16.83 15.6431 16.47V12.4C15.6431 10.36 14.2831 9 12.2431 9H5.45309C5.31309 9 5.1831 9.01002 5.0531 9.02002V6.25C5.0531 3.7 6.7531 2 9.3031 2H17.8031C20.3531 2 22.0531 3.7 22.0531 6.25Z" stroke="#292D32" stroke-width="1.5" stroke-miterlimit="10" stroke-linecap="round" stroke-linejoin="round"/>
<path d="M15.6431 12.4V16.47C15.6431 16.83 15.6031 17.17 15.5131 17.48C15.1431 18.95 13.9231 19.87 12.2431 19.87H9.5231L6.5031 21.88C6.0531 22.19 5.45309 21.86 5.45309 21.32V19.87C4.43309 19.87 3.5831 19.53 2.9931 18.94C2.3931 18.34 2.0531 17.49 2.0531 16.47V12.4C2.0531 10.5 3.2331 9.19002 5.0531 9.02002C5.1831 9.01002 5.31309 9 5.45309 9H12.2431C14.2831 9 15.6431 10.36 15.6431 12.4Z" stroke="#292D32" stroke-width="1.5" stroke-miterlimit="10" stroke-linecap="round" stroke-linejoin="round"/>
</svg>
