<svg width="140" height="140" viewBox="0 0 140 140" fill="none" xmlns="http://www.w3.org/2000/svg">
<path d="M70.6998 74.5531C70.2915 74.4947 69.7665 74.4947 69.2998 74.5531C59.0332 74.2031 50.8665 65.8031 50.8665 55.4781C50.8665 44.9197 59.3832 36.3447 69.9998 36.3447C80.5582 36.3447 89.1332 44.9197 89.1332 55.4781C89.0748 65.8031 80.9665 74.2031 70.6998 74.5531Z" stroke="#292D32" stroke-width="5" stroke-linecap="round" stroke-linejoin="round"/>
<path d="M109.317 113.048C98.9334 122.556 85.1667 128.331 70.0001 128.331C54.8334 128.331 41.0667 122.556 30.6834 113.048C31.2667 107.564 34.7667 102.198 41.0084 97.9977C56.9917 87.381 83.1251 87.381 98.9917 97.9977C105.233 102.198 108.733 107.564 109.317 113.048Z" stroke="#292D32" stroke-width="5" stroke-linecap="round" stroke-linejoin="round"/>
<path d="M70 128.334C102.217 128.334 128.333 102.217 128.333 70.0003C128.333 37.7837 102.217 11.667 70 11.667C37.7834 11.667 11.6667 37.7837 11.6667 70.0003C11.6667 102.217 37.7834 128.334 70 128.334Z" stroke="#292D32" stroke-width="5" stroke-linecap="round" stroke-linejoin="round"/>
</svg>
