<svg width="24" height="24" viewBox="0 0 25 24" fill="none" xmlns="http://www.w3.org/2000/svg">
<path d="M21.0531 5.98047C17.7231 5.65047 14.3731 5.48047 11.0331 5.48047C9.0531 5.48047 7.0731 5.58047 5.0931 5.78047L3.0531 5.98047" stroke="#292D32" stroke-width="1.5" stroke-linecap="round" stroke-linejoin="round"/>
<path d="M8.5531 4.97L8.7731 3.66C8.9331 2.71 9.0531 2 10.7431 2H13.3631C15.0531 2 15.1831 2.75 15.3331 3.67L15.5531 4.97" stroke="#292D32" stroke-width="1.5" stroke-linecap="round" stroke-linejoin="round"/>
<path d="M18.9031 9.13965L18.2531 19.2096C18.1431 20.7796 18.0531 21.9996 15.2631 21.9996H8.84309C6.05309 21.9996 5.96309 20.7796 5.85309 19.2096L5.20309 9.13965" stroke="#292D32" stroke-width="1.5" stroke-linecap="round" stroke-linejoin="round"/>
<path d="M10.3831 16.5H13.7131" stroke="#292D32" stroke-width="1.5" stroke-linecap="round" stroke-linejoin="round"/>
<path d="M9.5531 12.5H14.5531" stroke="#292D32" stroke-width="1.5" stroke-linecap="round" stroke-linejoin="round"/>
</svg>
